<svg width="113" height="113" viewBox="0 0 113 113" fill="none" xmlns="http://www.w3.org/2000/svg">
<g clip-path="url(#clip0_47_27)">
<mask id="mask0_47_27" style="mask-type:luminance" maskUnits="userSpaceOnUse" x="0" y="0" width="113" height="113">
<path d="M113 0H0V113H113V0Z" fill="white"/>
</mask>
<g mask="url(#mask0_47_27)">
<path fill-rule="evenodd" clip-rule="evenodd" d="M60.5358 2.26C60.5358 1.01184 59.5239 0 58.2758 0H54.7243C53.4761 0 52.4643 1.01184 52.4643 2.26V24.1113C52.4643 26.5953 49.0394 27.2611 48.1088 24.9579L39.9232 4.69773C39.4556 3.54045 38.1384 2.98133 36.9812 3.4489L33.6883 4.77929C32.5311 5.24686 31.9719 6.56406 32.4395 7.72135L41.1662 29.3206C42.0884 31.6033 39.2135 33.5062 37.4727 31.7653L21.0002 15.2929C20.1176 14.4103 18.6866 14.4103 17.8041 15.2929L15.2929 17.8041C14.4103 18.6866 14.4103 20.1176 15.2929 21.0002L30.0851 35.7924C31.8509 37.5583 29.8706 40.4613 27.5822 39.4614L8.41257 31.0861C7.26878 30.5863 5.93651 31.1084 5.43678 32.2522L4.01491 35.5066C3.51519 36.6504 4.03729 37.9826 5.18106 38.4824L27.2702 48.1333C29.5142 49.1138 28.8143 52.4643 26.3654 52.4643H2.26C1.01184 52.4643 0 53.4761 0 54.7243V58.2758C0 59.5239 1.01184 60.5358 2.26 60.5358H26.3653C28.8142 60.5358 29.5141 63.8862 27.2701 64.8665L5.18108 74.5178C4.03732 75.0173 3.51522 76.3496 4.01494 77.4931L5.43681 80.7475C5.93651 81.8917 7.26884 82.4137 8.41257 81.9137L27.5822 73.5387C29.8706 72.5387 31.8509 75.4416 30.0851 77.2078L15.2929 91.9995C14.4103 92.8826 14.4103 94.3132 15.2929 95.1957L17.8041 97.7071C18.6866 98.5897 20.1176 98.5897 21.0002 97.7071L37.4727 81.2346C39.2136 79.4938 42.0885 81.3967 41.1662 83.6793L32.4395 105.279C31.9719 106.436 32.531 107.753 33.6883 108.221L36.9811 109.551C38.1384 110.018 39.4556 109.46 39.9232 108.302L48.1088 88.0423C49.0394 85.7387 52.4643 86.4049 52.4643 88.8886V110.74C52.4643 111.988 53.4761 113 54.7243 113H58.2758C59.5239 113 60.5358 111.988 60.5358 110.74V88.8886C60.5358 86.4049 63.9608 85.7387 64.8914 88.0423L73.0765 108.302C73.5444 109.46 74.8614 110.018 76.0191 109.551L79.3119 108.221C80.469 107.753 81.0283 106.436 80.5605 105.279L71.8341 83.6793C70.9115 81.3967 73.7862 79.4938 75.5275 81.2346L91.9995 97.7071C92.8826 98.5897 94.3132 98.5897 95.1957 97.7071L97.7071 95.1957C98.5897 94.3132 98.5897 92.8826 97.7071 91.9995L82.9149 77.2078C81.1493 75.4416 83.1296 72.5387 85.4178 73.5387L104.587 81.9137C105.731 82.4137 107.064 81.8917 107.563 80.7475L108.985 77.4931C109.485 76.3496 108.963 75.0173 107.819 74.5178L85.7297 64.8665C83.4861 63.8862 84.1856 60.5358 86.6348 60.5358H110.74C111.988 60.5358 113 59.5239 113 58.2758V54.7243C113 53.4761 111.988 52.4643 110.74 52.4643H86.6348C84.1856 52.4643 83.4855 49.1138 85.7297 48.1333L107.819 38.4824C108.963 37.9826 109.485 36.6503 108.985 35.5066L107.563 32.2522C107.064 31.1084 105.731 30.5863 104.587 31.0861L85.4178 39.4614C83.1296 40.4612 81.1493 37.5583 82.9149 35.7924L97.7071 21.0001C98.5897 20.1176 98.5897 18.6866 97.7071 17.8041L95.1957 15.2928C94.3132 14.4102 92.8826 14.4102 91.9995 15.2928L75.5275 31.7653C73.7862 33.5061 70.9115 31.6033 71.8341 29.3206L80.5605 7.72135C81.0283 6.56406 80.469 5.24686 79.3119 4.77929L76.0191 3.4489C74.8614 2.98133 73.5444 3.54045 73.0765 4.69773L64.8914 24.9579C63.9608 27.2611 60.5358 26.5953 60.5358 24.1113V2.26Z" fill="#FFF"/>
</g>
</g>
<defs>
<clipPath id="clip0_47_27">
<rect width="113" height="113" fill="white"/>
</clipPath>
</defs>
</svg>
